PathFileType	4	(X/Y/Z)	C:/Users/beibeiliu/ov580/test_trc/capture2\sequence.3_training_dense_left.trc
DataRate	CameraRate	NumFrames	NumMarkers	Units	OrigDataRate	OrigDataStartFrame	OrigNumFrames
120	120	16	19	mm	120	132	350
Frame#	Time	ThumbCMC			ThumbMCP			ThumbIP			ThumbTip			IndexMCP			IndexPIP			IndexTip			MiddleMCP			MiddlePIP			MiddleTip			RingMCP			RingPIP			RingTip			PinkyMCP			PinkyPIP			PinkyTip			BackHand1			BackHand2			BackHand3	
		X0	Y0	Z0	X1	Y1	Z1	X2	Y2	Z2	X3	Y3	Z3	X4	Y4	Z4	X5	Y5	Z5	X6	Y6	Z6	X7	Y7	Z7	X8	Y8	Z8	X9	Y9	Z9	X10	Y10	Z10	X11	Y11	Z11	X12	Y12	Z12	X13	Y13	Z13	X14	Y14	Z14	X15	Y15	Z15	X16	Y16	Z16	X17	Y17	Z17	X18	Y18	Z18	
131	1.09167	-192.711	109.264	-35.8044	-183.334	129.486	-58.1034	-178.54	138.757	-82.8024	-165.275	120.105	-102.007	-188.62	118.836	-106.993	-162.215	131.084	-109.223	-151.7	119.987	-78.2181	-173.355	101.672	-113	-147.871	113.88	-99.7047	-161.324	100.742	-66.6097	-158.731	85.59	-105.929	-140.024	98.3777	-84.4132	-161.378	86.6718	-61.9502	-154.453	72.8672	-98.2945	-137.544	85.6956	-78.3411	-160.523	78.0342	-52.9415	-192.827	53.7085	-71.3626	-197.226	51.2674	-39.987	-209.195	78.8143	-47.9174	
132	1.1	-187.697	110.85	-35.8232	-178.804	132.974	-58.0214	-174.245	136.968	-85.0953	-161.117	118.556	-100.507	-180.045	117.494	-106.477	-150.939	128.616	-109.588	-139.82	124.925	-79.0965	-164.885	103.705	-112.289	-138.706	111.823	-98.6132	-154.935	100.924	-65.4103	-153.299	90.5742	-105.856	-133.776	97.8345	-83.1896	-156.736	90.4225	-61.9239	-148.274	73.3839	-98.0066	-132.299	86.2049	-76.6704	-155.055	77.5783	-55.1662	-188.121	59.8991	-73.2301	-192.499	52.6649	-36.9399	-205.208	84.384	-52.77	
133	1.10833	-182.245	114.619	-35.8251	-171.928	133.137	-54.5965	-165.415	136.284	-82.5867	-152.279	115.064	-102.614	-174.168	119.944	-105.388	-144.055	128.912	-108.687	-132.766	124.642	-76.5013	-158.565	102.777	-111.131	-133.352	115.583	-98.3076	-144.967	101.52	-66.2016	-146.548	83.6015	-106.304	-127.61	98.9516	-86.7031	-151.686	90.2221	-62.6165	-139.289	69.8251	-98.5739	-122.707	83.077	-77.4426	-145.769	80.5177	-56.3938	-185.036	58.5027	-69.9038	-187.55	52.4679	-39.1171	-198.475	82.4928	-50.3232	
134	1.11667	-173.298	113.028	-34.7358	-161.05	130.123	-59.1368	-154.62	137.24	-83.8489	-142.732	119.99	-101.304	-166.025	120.346	-106.223	-135.107	134.068	-103.476	-128.6	119.779	-76.1665	-152.469	105.05	-111.116	-124.871	112.843	-100.236	-141.577	105.129	-65.3728	-139.606	84.4561	-106.848	-120.762	98.629	-85.6248	-144.698	87.4249	-61.6435	-131.105	71.3969	-100.614	-119.3	86.4049	-77.4958	-141.732	82.393	-56.2308	-176.463	60.1869	-75.0023	-184.023	55.2324	-44.4305	-194.117	85.5393	-53.731	
135	1.125	-166.901	113.516	-35.006	-147.446	132.386	-54.5845	-136.33	141.133	-81.4066	-124.62	131.234	-104.051	-155.381	122.837	-107.586	-127.844	127.031	-98.9884	-133.982	111.477	-70.8611	-145.46	103.708	-110.691	-120.109	114.049	-98.2356	-135.501	98.8617	-63.24	-133.556	89.6054	-105.988	-113.728	96.1278	-82.5481	-138.405	89.5954	-60.8002	-130.032	69.3582	-98.2752	-112.188	84.209	-76.4126	-133.623	79.8756	-53.3739	-172.603	60.2144	-73.909	-174.499	50.8511	-46.1117	-187.518	84.7584	-54.2028	
136	1.13333	-157.272	110.899	-41.3241	-135.89	130.397	-58.1012	-123.678	140.285	-77.1782	-111.789	130.39	-103.8	-146.07	122.306	-106.725	-119.276	124.398	-96.966	-130.077	109.11	-70.0255	-136.832	103.281	-110.586	-111.33	111.906	-93.9234	-128.5	102.045	-61.5982	-126.725	84.2692	-105.233	-107.026	93.9133	-85.9655	-131.264	84.8723	-58.9953	-119.24	70.7587	-99.2098	-104.135	78.5201	-75.9034	-130.518	76.4308	-51.9134	-166.844	60.3679	-72.4255	-170.379	50.3917	-45.4835	-180.212	82.8046	-55.8623	
137	1.14167	-149.535	108.686	-40.7559	-125.9	126.978	-54.1692	-111.696	131.909	-79.7103	-100.823	122.184	-101.682	-140.106	118.272	-105.166	-110.282	124.561	-94.0063	-124.288	110.889	-67.0188	-131.078	99.0136	-107.942	-101.627	106.782	-92.16	-117.145	93.8592	-60.631	-119.88	78.4806	-105.172	-98.3655	85.3093	-83.2163	-124.956	82.3319	-57.883	-114.946	66.3019	-97.8473	-99.6253	73.2356	-73.5567	-119.816	71.8936	-51.5664	-162.511	58.4323	-74.173	-165.256	50.6016	-44.0786	-175.15	85.3307	-55.7579	
138	1.15	-139.84	105.796	-36.4619	-115.268	120.148	-52.9368	-98.9856	128.739	-80.2946	-89.6025	116.693	-100.399	-127.699	115.564	-105.644	-98.2289	113.439	-94.5074	-114.901	103.757	-66.0096	-118.571	93.3364	-109.857	-92.6926	96.9362	-90.819	-108.057	88.3563	-59.65	-115.151	74.7417	-104.372	-92.9003	79.8342	-81.7982	-114.613	72.3402	-56.8794	-110.773	62.7469	-96.2475	-94.5988	64.6213	-71.6269	-114.845	64.9929	-50.4963	-158.634	56.0917	-78.3645	-163.525	50.8341	-41.8874	-167.384	86.686	-56.4779	
139	1.15833	-131.584	104.458	-36.3496	-107.116	115.539	-53.854	-93.3656	118.506	-78.0885	-87.6702	104.688	-95.6798	-117.654	112.65	-103.468	-87.9208	106.863	-94.2761	-97.7736	91.6856	-68.8434	-110.323	85.0884	-109.793	-85.5252	85.3836	-94.285	-99.8845	80.3009	-59.8305	-107.803	67.2979	-102.541	-88.2024	66.8934	-77.5139	-112.913	68.1861	-55.2384	-112.077	50.5239	-96.6413	-91.87	52.8196	-73.4216	-116.077	54.6358	-49.7724	-156.328	55.7287	-72.6017	-162.94	49.3104	-47.1313	-161.046	81.9452	-52.6849	
140	1.16667	-127.137	95.5326	-34.2578	-104.768	108.323	-50.8324	-93.3172	110.503	-78.2069	-91.8951	86.3729	-96.9126	-108.985	100.563	-103.609	-78.0319	92.6411	-98.6272	-80.5201	78.6077	-70.0288	-108.273	79.7661	-105.96	-79.9409	71.4831	-93.0135	-97.7929	69.5129	-58.6496	-105.571	60.6572	-102.074	-85.1124	57.6629	-75.9457	-109.204	60.8076	-54.6228	-109.11	42.9702	-95.9917	-91.4998	42.2987	-72.5709	-110.791	49.5953	-51.0443	-154.115	54.1547	-73.5995	-162.413	47.956	-41.5434	-156.381	84.5491	-53.5294	
141	1.175	-122.533	88.883	-31.3441	-101.984	97.0813	-51.5261	-89.7111	101.637	-77.7365	-92.1855	76.1322	-91.4389	-104.928	93.1225	-100.9	-75.7237	83.2393	-102.326	-70.8987	69.8145	-68.9785	-105.647	68.5643	-106.803	-75.7029	61.9513	-88.865	-92.3457	59.2645	-58.3583	-101.874	47.1418	-102.416	-84.5616	42.1632	-78.5414	-105.722	46.2772	-54.5874	-106.356	32.5751	-97.2966	-90.7171	30.1455	-74.2353	-112.874	41.0046	-47.2443	-152.011	49.9436	-77.0208	-163.067	43.925	-46.7628	-151.14	75.4855	-52.0946	
142	1.18333	-117.854	80.1586	-28.6111	-96.4477	86.4188	-50.9833	-84.3103	86.935	-77.7479	-89.811	61.3666	-90.8377	-101.136	81.5047	-101.944	-72.1807	65.7696	-101.823	-69.8003	53.0018	-72.4626	-100.198	59.5755	-105.963	-75.9539	45.1891	-92.1703	-95.6654	45.1074	-58.6134	-104.539	39.807	-101.86	-84.9651	29.2516	-79.3815	-107.214	42.5203	-54.2508	-108.472	21.0639	-97.6003	-92.3395	21.0661	-74.2336	-111.942	27.4619	-47.2454	-152.587	44.9056	-74.9223	-164.305	37.8477	-47.3731	-149.814	68.7678	-51.4275	
143	1.19167	-115.735	70.2288	-31.7739	-92.5302	71.381	-51.6047	-78.3307	73.2251	-75.5708	-84.3852	50.0519	-92.2705	-97.4238	69.5986	-101.185	-70.4672	53.5819	-100.27	-74.1194	42.0703	-68.4315	-99.8579	44.2435	-107.708	-77.2017	31.0178	-89.8177	-94.5693	37.2477	-57.6931	-106.613	27.2217	-102.353	-86.4927	17.2413	-76.65	-104.608	27.2095	-54.1997	-115.599	10.6252	-96.9381	-94.9098	9.54695	-73.6509	-116.499	20.447	-47.5212	-153.407	39.7251	-76.4655	-164.913	31.0866	-45.9683	-147.324	60.4377	-51.9272	
144	1.2	-114.471	59.7428	-33.0729	-86.3423	59.8525	-52.3356	-70.3773	57.6791	-74.4909	-71.8361	38.2128	-97.8081	-99.4255	60.1556	-101.839	-72.5362	45.1586	-93.6748	-88.179	39.2661	-62.9841	-104.596	35.3498	-107.315	-79.5699	22.8427	-92.78	-95.5826	29.9661	-57.6306	-104.388	17.3922	-101.79	-87.9963	9.05286	-81.351	-110.117	19.2875	-52.624	-117.294	4.42953	-94.2738	-98.3787	-0.226941	-70.5503	-114.498	9.57891	-47.9093	-155.252	29.8946	-74.4852	-166.76	24.5257	-43.9868	-147.471	54.9552	-54.3357	
145	1.20833	-113.542	52.8538	-36.4015	-87.0084	46.2251	-51.9896	-69.9081	41.8827	-75.5494	-70.9222	24.6673	-96.1939	-97.9127	48.0747	-102.613	-75.9896	33.3238	-93.5171	-91.7573	30.9461	-64.4966	-107.731	24.8186	-105.729	-83.035	11.9132	-91.7345	-98.6329	20.8176	-55.5891	-111.761	9.85983	-100.377	-91.4251	-1.20937	-78.2784	-111.901	11.7015	-53.065	-115.568	-9.05854	-94.7453	-101.439	-12.0056	-69.6935	-119.841	0.733842	-46.05	-158.031	17.9493	-72.5971	-170.167	16.0916	-43.1614	-149.916	47.1687	-51.1709	
146	1.21667	-117.923	38.6345	-34.6264	-90.1039	31.4648	-50.7674	-69.1476	29.9522	-69.4895	-73.9405	10.8517	-91.7808	-101.391	35.6458	-101.826	-76.836	23.8628	-92.8878	-97.6885	23.602	-60.96	-108.562	17.3466	-104.651	-84.7839	1.13694	-89.4687	-99.2904	8.27733	-56.5084	-110.864	-2.54618	-99.7861	-93.2104	-11.1408	-73.6603	-111.36	-1.44915	-51.6588	-120.52	-18.7646	-91.1341	-103.189	-19.7394	-68.6677	-121.401	-4.33914	-44.3502	-159.84	10.2493	-70.2995	-171.743	9.34252	-42.8421	-154.691	37.6823	-51.286	
